<svg id="Слой_1" data-name="Слой 1" xmlns="http://www.w3.org/2000/svg" xmlns:xlink="http://www.w3.org/1999/xlink" viewBox="0 0 700 600"><defs><style>.cls-1{fill:url(#Безымянный_градиент_86);}.cls-2{fill:url(#Безымянный_градиент_86-2);}.cls-3{fill:#455a64;}.cls-4{fill:#e3f2fd;}.cls-5{fill:#1e88e5;}.cls-6{fill:#90a4ae;}.cls-7{fill:#9600e7;}.cls-8{fill:#558b2f;}.cls-9{fill:#cd2eff;}.cls-10{fill:#ffa000;}.cls-11{fill:url(#Безымянный_градиент_86-3);}.cls-12{fill:url(#Безымянный_градиент_119);}.cls-13{fill:url(#Безымянный_градиент_119-2);}.cls-14{fill:url(#Безымянный_градиент_119-3);}.cls-15{fill:url(#Безымянный_градиент_119-4);}.cls-16{fill:url(#Безымянный_градиент_119-5);}.cls-17{fill:url(#Безымянный_градиент_119-6);}.cls-18{fill:url(#Безымянный_градиент_119-7);}</style><linearGradient id="Безымянный_градиент_86" x1="400" y1="633.33" x2="400" y2="316.67" gradientUnits="userSpaceOnUse"><stop offset="0" stop-color="#e9bd00"/><stop offset="1" stop-color="#d48e00"/></linearGradient><linearGradient id="Безымянный_градиент_86-2" x1="83.33" y1="666.67" x2="716.67" y2="666.67" xlink:href="#Безымянный_градиент_86"/><linearGradient id="Безымянный_градиент_86-3" x1="50" y1="250" x2="750" y2="250" xlink:href="#Безымянный_градиент_86"/><radialGradient id="Безымянный_градиент_119" cx="199.65" cy="139.63" r="32.49" xlink:href="#Безымянный_градиент_86"/><radialGradient id="Безымянный_градиент_119-2" cx="264.8" cy="139.63" r="33.3" xlink:href="#Безымянный_градиент_86"/><radialGradient id="Безымянный_градиент_119-3" cx="326.4" cy="139.63" r="31.87" xlink:href="#Безымянный_градиент_86"/><radialGradient id="Безымянный_градиент_119-4" cx="399.35" cy="139.63" r="37.82" xlink:href="#Безымянный_градиент_86"/><radialGradient id="Безымянный_градиент_119-5" cx="408.65" cy="39.63" r="26.69" xlink:href="#Безымянный_градиент_86"/><radialGradient id="Безымянный_градиент_119-6" cx="509.15" cy="140.43" r="34.34" xlink:href="#Безымянный_градиент_86"/><radialGradient id="Безымянный_градиент_119-7" cx="589.15" cy="139.63" r="37.82" xlink:href="#Безымянный_градиент_86"/></defs><path class="cls-1" d="M83.33,316.67H716.67V633.33H83.33Z" transform="translate(-50 -100)"/><path class="cls-2" d="M83.33,633.33H716.67V700H83.33Z" transform="translate(-50 -100)"/><path class="cls-3" d="M450,400H650V700H450Z" transform="translate(-50 -100)"/><path class="cls-4" d="M150,400H383.33V583.33H150Z" transform="translate(-50 -100)"/><path class="cls-5" d="M166.67,416.67h200v150h-200Z" transform="translate(-50 -100)"/><path class="cls-6" d="M608.33,558.33c-5,0-8.33,3.34-8.33,8.34V600c0,5,3.33,8.33,8.33,8.33s8.34-3.33,8.34-8.33V566.67C616.67,561.67,613.33,558.33,608.33,558.33Z" transform="translate(-50 -100)"/><path class="cls-7" d="M450,316.67a50,50,0,1,1-100,0Z" transform="translate(-50 -100)"/><path class="cls-7" d="M650,316.67a50,50,0,1,1-100,0Z" transform="translate(-50 -100)"/><path class="cls-8" d="M650,316.67l-5.89-23.55A49.73,49.73,0,0,1,650,316.67Z" transform="translate(-50 -100)"/><path class="cls-8" d="M155.89,293.12,150,316.67A49.73,49.73,0,0,1,155.89,293.12Z" transform="translate(-50 -100)"/><path class="cls-7" d="M250,316.67a50,50,0,1,1-100,0Z" transform="translate(-50 -100)"/><path class="cls-9" d="M700,183.33H616.67L644.11,293.1v0L650,316.67H550L533.33,183.33H450V316.67H350V183.33H266.67L250,316.67H150l5.89-23.55,27.44-109.79H100v-50A33.43,33.43,0,0,1,133.33,100H666.67A33.43,33.43,0,0,1,700,133.33Z" transform="translate(-50 -100)"/><path class="cls-10" d="M450,316.67a50,50,0,1,0,50-50A50,50,0,0,0,450,316.67Z" transform="translate(-50 -100)"/><path class="cls-10" d="M750,316.67c0,28.33-21.67,50-50,50s-50-21.67-50-50,21.67-50,50-50Z" transform="translate(-50 -100)"/><path class="cls-10" d="M250,316.67a50,50,0,1,0,50-50A50,50,0,0,0,250,316.67Z" transform="translate(-50 -100)"/><path class="cls-10" d="M50,316.67c0,28.33,21.67,50,50,50s50-21.67,50-50-21.67-50-50-50Z" transform="translate(-50 -100)"/><path class="cls-11" d="M533.33,183.33H450V316.67H550Zm166.67,0H616.67L650,316.67H750Zm-433.33,0H350V316.67H250Zm-166.67,0h83.33L150,316.67H50Z" transform="translate(-50 -100)"/><path class="cls-12" d="M173.25,176.13a1.5,1.5,0,0,1-1.5-1.5v-70a1.5,1.5,0,0,1,1.5-1.5h27.9c7.54,0,13.88,2.19,18.84,6.52s7.56,10.53,7.56,18.28S225,141.83,220,146.21s-11.3,6.52-18.84,6.52H191v21.9a1.5,1.5,0,0,1-1.5,1.5Zm26.9-41c2.9,0,5-.66,6.28-1.95a8.14,8.14,0,0,0,0-10.5c-1.27-1.29-3.38-2-6.28-2H191v14.4Z" transform="translate(-50 -100)"/><path d="M201.15,104.63q10.8,0,17.85,6.15t7.05,17.15q0,11-7.05,17.15t-17.85,6.15h-11.7v23.4h-16.2v-70h27.9m-11.7,32h10.7q5,0,7.35-2.4a9.62,9.62,0,0,0,0-12.6q-2.34-2.4-7.35-2.4h-10.7v17.4m11.7-35h-27.9a3,3,0,0,0-3,3v70a3,3,0,0,0,3,3h16.2a3,3,0,0,0,3-3v-20.4h8.7c7.92,0,14.58-2.32,19.82-6.89s8.08-11.2,8.08-19.41-2.72-14.73-8.07-19.41-11.91-6.89-19.83-6.89Zm-8.7,20.6h7.7c2.48,0,4.24.51,5.21,1.5a6.66,6.66,0,0,1,0,8.4c-1,1-2.73,1.5-5.21,1.5h-7.7v-11.4Z" transform="translate(-50 -100)"/><path class="cls-13" d="M275,176.13a1.5,1.5,0,0,1-1.31-.77L260,150.93h-5.72v23.7a1.5,1.5,0,0,1-1.5,1.5h-16.2a1.5,1.5,0,0,1-1.5-1.5v-70a1.5,1.5,0,0,1,1.5-1.5h27.8c7.66,0,14.16,2.19,19.31,6.5a21.64,21.64,0,0,1,7.89,17.4c0,8.88-4.05,15.7-12.05,20.29l14.86,26.58a1.49,1.49,0,0,1-1.31,2.23Zm-10.4-42.8c6.56,0,7.4-3.37,7.4-6.3s-.84-6.3-7.4-6.3h-10.3v12.6Z" transform="translate(-50 -100)"/><path d="M264.35,104.63q11,0,18.35,6.15A20.15,20.15,0,0,1,290.05,127q0,13.2-12.6,19.7l15.6,27.9H275l-14.1-25.2h-8.1v25.2h-16.2v-70h27.8m-11.6,30.2h11.8q8.91,0,8.9-7.8t-8.9-7.8h-11.8v15.6m11.6-33.2h-27.8a3,3,0,0,0-3,3v70a3,3,0,0,0,3,3h16.2a3,3,0,0,0,3-3v-22.2h3.34l13.24,23.67a3,3,0,0,0,2.62,1.53h18.1a3,3,0,0,0,2.62-4.46l-14.15-25.31C289.18,143,293.05,136,293.05,127a23.1,23.1,0,0,0-8.42-18.55c-5.43-4.54-12.26-6.85-20.28-6.85Zm-8.6,20.6h8.8c5.45,0,5.9,2.37,5.9,4.8s-.45,4.8-5.9,4.8h-8.8v-9.6Z" transform="translate(-50 -100)"/><path class="cls-14" d="M301.45,176.13a1.5,1.5,0,0,1-1.5-1.5v-70a1.5,1.5,0,0,1,1.5-1.5h49.1a1.5,1.5,0,0,1,1.5,1.5v14.6a1.5,1.5,0,0,1-1.5,1.5h-31.4v9.8H348a1.5,1.5,0,0,1,1.5,1.5v14.6a1.5,1.5,0,0,1-1.5,1.5h-28.8v10.4h32.2a1.5,1.5,0,0,1,1.5,1.5v14.6a1.5,1.5,0,0,1-1.5,1.5Z" transform="translate(-50 -100)"/><path d="M350.55,104.63v14.6h-32.9V132H348v14.6h-30.3V160h33.7v14.6h-49.9v-70h49.1m0-3h-49.1a3,3,0,0,0-3,3v70a3,3,0,0,0,3,3h49.9a3,3,0,0,0,3-3V160a3,3,0,0,0-3-3h-30.7v-7.4H348a3,3,0,0,0,3-3V132a3,3,0,0,0-3-3h-27.3v-6.8h29.9a3,3,0,0,0,3-3v-14.6a3,3,0,0,0-3-3Z" transform="translate(-50 -100)"/><path class="cls-15" d="M421.35,176.13a1.5,1.5,0,0,1-1.5-1.5V146.16l-10.79,29a1.5,1.5,0,0,1-1.41,1h-16.6a1.5,1.5,0,0,1-1.4-1l-10.8-29v28.47a1.5,1.5,0,0,1-1.5,1.5h-15.6a1.5,1.5,0,0,1-1.5-1.5v-70a1.5,1.5,0,0,1,1.5-1.5h18.5a1.49,1.49,0,0,1,1.4,1l17.7,46.33,17.7-46.33a1.49,1.49,0,0,1,1.4-1H437a1.5,1.5,0,0,1,1.5,1.5v70a1.5,1.5,0,0,1-1.5,1.5Z" transform="translate(-50 -100)"/><path d="M437,104.63v70h-15.6v-36.8l-13.7,36.8h-16.6l-13.7-36.8v36.8h-15.6v-70h18.5l19.1,50,19.1-50H437m0-3h-18.5a3,3,0,0,0-2.8,1.93l-16.3,42.66-16.3-42.66a3,3,0,0,0-2.8-1.93h-18.5a3,3,0,0,0-3,3v70a3,3,0,0,0,3,3h15.6a3,3,0,0,0,3-3V154.49l7.89,21.19a3,3,0,0,0,2.81,1.95h16.6a3,3,0,0,0,2.81-1.95l7.89-21.19v20.14a3,3,0,0,0,3,3H437a3,3,0,0,0,3-3v-70a3,3,0,0,0-3-3Z" transform="translate(-50 -100)"/><rect class="cls-16" x="399.05" y="3.13" width="19.2" height="73" rx="1.5"/><path d="M466.75,104.63v70h-16.2v-70h16.2m0-3h-16.2a3,3,0,0,0-3,3v70a3,3,0,0,0,3,3h16.2a3,3,0,0,0,3-3v-70a3,3,0,0,0-3-3Z" transform="translate(-50 -100)"/><path class="cls-17" d="M509.15,177.73c-9,0-16.51-2.65-22.31-7.89s-8.79-12.88-8.79-22.61v-42.6a1.5,1.5,0,0,1,1.5-1.5h16.2a1.5,1.5,0,0,1,1.5,1.5v42.8c0,4.24,1,7.46,3.08,9.55s4.94,3.15,8.82,3.15,6.77-1,8.82-3.15,3.08-5.31,3.08-9.55v-42.8a1.5,1.5,0,0,1,1.5-1.5h16.2a1.5,1.5,0,0,1,1.5,1.5v42.6c0,9.73-3,17.34-8.79,22.61S518.16,177.73,509.15,177.73Z" transform="translate(-50 -100)"/><path d="M538.75,104.63v42.6q0,14-8.3,21.5t-21.3,7.5q-13,0-21.3-7.5t-8.3-21.5v-42.6h16.2v42.8q0,7,3.5,10.6t9.9,3.6c4.27,0,7.56-1.2,9.9-3.6s3.5-5.93,3.5-10.6v-42.8h16.2m0-3h-16.2a3,3,0,0,0-3,3v42.8c0,3.84-.89,6.7-2.65,8.51s-4.3,2.69-7.75,2.69-6-.88-7.75-2.69-2.65-4.67-2.65-8.51v-42.8a3,3,0,0,0-3-3h-16.2a3,3,0,0,0-3,3v42.6c0,10.18,3.12,18.16,9.29,23.73s13.92,8.27,23.31,8.27,17.23-2.78,23.31-8.27,9.29-13.56,9.29-23.73v-42.6a3,3,0,0,0-3-3Z" transform="translate(-50 -100)"/><path class="cls-18" d="M611.15,176.13a1.5,1.5,0,0,1-1.5-1.5V146.16l-10.79,29a1.5,1.5,0,0,1-1.41,1h-16.6a1.5,1.5,0,0,1-1.41-1l-10.79-29v28.47a1.5,1.5,0,0,1-1.5,1.5h-15.6a1.5,1.5,0,0,1-1.5-1.5v-70a1.5,1.5,0,0,1,1.5-1.5h18.5a1.49,1.49,0,0,1,1.4,1l17.7,46.33,17.7-46.33a1.49,1.49,0,0,1,1.4-1h18.5a1.5,1.5,0,0,1,1.5,1.5v70a1.5,1.5,0,0,1-1.5,1.5Z" transform="translate(-50 -100)"/><path d="M626.75,104.63v70h-15.6v-36.8l-13.7,36.8h-16.6l-13.7-36.8v36.8h-15.6v-70h18.5l19.1,50,19.1-50h18.5m0-3h-18.5a3,3,0,0,0-2.8,1.93l-16.3,42.66-16.3-42.66a3,3,0,0,0-2.8-1.93h-18.5a3,3,0,0,0-3,3v70a3,3,0,0,0,3,3h15.6a3,3,0,0,0,3-3V154.49L578,175.68a3,3,0,0,0,2.81,1.95h16.6a3,3,0,0,0,2.81-1.95l7.89-21.19v20.14a3,3,0,0,0,3,3h15.6a3,3,0,0,0,3-3v-70a3,3,0,0,0-3-3Z" transform="translate(-50 -100)"/></svg>